<?xml version="1.0" encoding="utf-8"?>
<!-- Generator: Adobe Illustrator 16.0.0, SVG Export Plug-In . SVG Version: 6.00 Build 0)  -->
<!DOCTYPE svg PUBLIC "-//W3C//DTD SVG 1.1//EN" "http://www.w3.org/Graphics/SVG/1.1/DTD/svg11.dtd">
<svg version="1.1" id="Calque_1" xmlns="http://www.w3.org/2000/svg" xmlns:xlink="http://www.w3.org/1999/xlink" x="0px" y="0px"
	 width="278.032px" height="111.934px" viewBox="0 0 278.032 111.934" enable-background="new 0 0 278.032 111.934"
	 xml:space="preserve">
<g>
	<path fill="#222222" d="M61.18,68.88c0,21.14-12.32,29.82-31.5,29.82c-9.38,0-18.2-1.82-25.76-5.04l3.64-10.78
		c6.72,2.94,13.86,4.76,21.56,4.76c12.46,0,18.76-5.88,18.76-17.359V66.22c-4.48,3.08-10.78,6.3-18.9,6.3
		C12.18,72.52,0,59.5,0,36.68C0,13.58,12.32,0,29.26,0C37.24,0,43.82,3.22,49,7.42l1.96-6.02h10.22V68.88z M32.62,61.32
		c5.88,0,11.34-2.66,15.26-5.601V16.8c-4.2-3.22-9.66-5.6-15.12-5.6c-11.34,0-19.32,8.82-19.32,25.2
		C13.44,52.08,21,61.32,32.62,61.32z"/>
	<path fill="#222222" d="M99.819,75.18c-13.16,0-22.4-7.84-22.4-22.68c0-7.14,2.1-12.46,5.74-16.24c4.76-4.62,11.76-7.42,27.44-7.42
		c4.34,0,8.54,0.42,12.04,0.84v-5.04c0-8.68-4.62-13.16-15.4-13.16c-7.28,0-14.56,1.96-21.42,4.9l-3.22-10.64
		c7.7-3.22,16.66-5.46,26.46-5.46c18.2,0,26.88,7.28,26.88,24.08v35.42l1.68,14.14h-11.34l-2.66-8.12
		C116.199,71.96,108.779,75.18,99.819,75.18z M122.639,56.7V39.76c-3.22-0.28-6.86-0.56-10.5-0.56c-12.32,0-16.1,1.82-18.9,4.62
		c-1.96,1.96-2.94,4.9-2.94,8.121c0,7.699,5.04,12.18,13.72,12.18C110.319,64.12,116.759,61.46,122.639,56.7z"/>
	<path fill="#222222" d="M151.338,73.92V63.56l39.9-51.1h-37.8V1.4h53.62v10.36l-39.9,51.1h39.9v11.06H151.338z"/>
	<path fill="#222222" d="M223.438,73.92V1.4h10.08l2.52,12.04c6.58-7.98,14.7-13.02,26.04-12.88v13.58
		c-9.939,0.28-18.2,3.92-25.2,9.8v49.98H223.438z"/>
</g>
<rect x="257.144" y="53.773" fill="#59BF9F" width="20.888" height="20.889"/>
<g>
	<path fill="#8E9093" d="M169.884,106.192V86.366l6.648,0.408v1.368l-4.68-0.216v16.705l4.68-0.216v1.368L169.884,106.192z"/>
	<path fill="#8E9093" d="M188.989,102.712c0,3.624-2.112,5.112-5.4,5.112c-1.608,0-3.121-0.312-4.417-0.863l0.624-1.849
		c1.152,0.504,2.376,0.816,3.696,0.816c2.137,0,3.217-1.009,3.217-2.977v-0.696c-0.769,0.528-1.849,1.08-3.24,1.08
		c-2.881,0-4.969-2.232-4.969-6.145c0-3.96,2.112-6.288,5.017-6.288c1.368,0,2.496,0.552,3.384,1.271l0.336-1.031h1.753V102.712z
		 M184.092,101.416c1.008,0,1.944-0.456,2.616-0.96v-6.673c-0.721-0.552-1.656-0.96-2.593-0.96c-1.944,0-3.312,1.512-3.312,4.32
		C180.804,99.832,182.1,101.416,184.092,101.416z"/>
	<path fill="#8E9093" d="M195.612,103.792c-2.256,0-3.84-1.344-3.84-3.888c0-1.225,0.359-2.137,0.983-2.785
		c0.816-0.792,2.017-1.271,4.705-1.271c0.744,0,1.464,0.072,2.063,0.144v-0.863c0-1.488-0.792-2.257-2.64-2.257
		c-1.248,0-2.496,0.336-3.673,0.84l-0.552-1.824c1.32-0.552,2.856-0.936,4.536-0.936c3.121,0,4.608,1.248,4.608,4.128v6.073
		l0.288,2.424h-1.944l-0.456-1.393C198.42,103.24,197.148,103.792,195.612,103.792z M199.524,100.624V97.72
		c-0.552-0.048-1.176-0.096-1.8-0.096c-2.112,0-2.76,0.312-3.24,0.792c-0.336,0.336-0.504,0.84-0.504,1.392
		c0,1.32,0.864,2.089,2.353,2.089C197.413,101.896,198.516,101.44,199.524,100.624z"/>
	<path fill="#8E9093" d="M206.004,99.976v-6.912h-1.92v-1.92h1.92v-3.577h2.28v3.577h3.696v1.92h-3.696v6.576
		c0,1.464,0.792,2.16,2.089,2.16c0.552,0,1.056-0.072,1.607-0.24v1.896c-0.6,0.192-1.32,0.312-2.16,0.312
		C207.373,103.769,206.004,102.616,206.004,99.976z"/>
	<path fill="#8E9093" d="M217.044,103.576h-2.305V86.198h2.305v6.073c1.056-0.744,2.304-1.345,3.84-1.345
		c2.496,0,3.864,1.44,3.864,4.177v8.473h-2.279v-7.969c0-1.729-0.841-2.641-2.4-2.641c-1.08,0-2.208,0.505-3.024,1.104V103.576z"/>
	<path fill="#8E9093" d="M227.507,97.407c0-3.936,2.232-6.552,5.305-6.552c3.217,0,5.209,2.664,5.209,6.624v0.84h-8.257
		c0.191,2.16,1.512,3.601,3.576,3.601c1.152,0,2.4-0.384,3.528-1.032l0.672,1.729c-1.32,0.768-2.832,1.2-4.296,1.2
		C229.932,103.816,227.507,101.656,227.507,97.407z M235.789,96.495c-0.168-2.231-1.248-3.768-3-3.768
		c-1.729,0-2.881,1.56-3.049,3.768H235.789z"/>
	<path fill="#8E9093" d="M240.755,103.576V91.144h1.729l0.432,2.063c1.129-1.368,2.521-2.232,4.465-2.208v2.328
		c-1.704,0.048-3.12,0.672-4.32,1.681v8.568H240.755z"/>
	<path fill="#8E9093" d="M248.748,105.784v-1.368l4.656,0.216V87.927l-4.656,0.216v-1.368l6.625-0.408v19.826L248.748,105.784z"/>
</g>
</svg>
